<svg width="20" height="20" viewBox="0 0 20 20" fill="none" xmlns="http://www.w3.org/2000/svg">
<path fill-rule="evenodd" clip-rule="evenodd" d="M13.4653 6.86069C13.4653 8.81876 11.9043 10.3888 9.95753 10.3888C8.01078 10.3888 6.44979 8.81876 6.44979 6.86069C6.44979 4.90187 8.01078 3.33331 9.95753 3.33331C11.9043 3.33331 13.4653 4.90187 13.4653 6.86069ZM9.95754 16.6667C7.09822 16.6667 4.65675 16.2134 4.65675 14.4001C4.65675 12.5862 7.08255 12.1163 9.95754 12.1163C12.8169 12.1163 15.2583 12.5696 15.2583 14.3836C15.2583 16.1968 12.8325 16.6667 9.95754 16.6667ZM14.9643 6.92431C14.9643 7.92248 14.6665 8.85236 14.1442 9.62538C14.0905 9.70493 14.1382 9.81225 14.233 9.82876C14.3636 9.85128 14.4986 9.86404 14.6359 9.86779C16.0052 9.90381 17.2341 9.01747 17.5736 7.68307C18.0765 5.70098 16.5999 3.92153 14.7195 3.92153C14.5151 3.92153 14.3196 3.9433 14.1293 3.98232C14.1032 3.98833 14.0756 4.00034 14.0606 4.0236C14.0427 4.05212 14.0562 4.0904 14.0741 4.11516C14.6389 4.91145 14.9643 5.8826 14.9643 6.92431ZM17.2319 11.2605C18.1519 11.4413 18.757 11.8106 19.0077 12.3472C19.2197 12.7877 19.2197 13.2988 19.0077 13.7386C18.6242 14.5709 17.3878 14.8381 16.9073 14.9072C16.808 14.9222 16.7282 14.8359 16.7386 14.7361C16.9841 12.4298 15.0314 11.3363 14.5263 11.0848C14.5046 11.0736 14.5001 11.0563 14.5024 11.0458C14.5039 11.0383 14.5128 11.0263 14.5292 11.0241C15.6224 11.0038 16.7976 11.1539 17.2319 11.2605ZM5.36426 9.86778C5.50156 9.86403 5.63587 9.85202 5.7672 9.82875C5.86196 9.81224 5.90971 9.70492 5.85599 9.62537C5.33367 8.85235 5.03595 7.92247 5.03595 6.9243C5.03595 5.8826 5.36128 4.91144 5.92613 4.11515C5.94404 4.09039 5.95672 4.05211 5.93956 4.02359C5.92464 4.00108 5.89628 3.98832 5.87091 3.98231C5.67989 3.94329 5.4844 3.92152 5.27995 3.92152C3.3996 3.92152 1.92293 5.70097 2.4266 7.68306C2.7661 9.01746 3.99504 9.9038 5.36426 9.86778ZM5.49746 11.0454C5.4997 11.0566 5.49522 11.0731 5.47433 11.0851C4.96843 11.3365 3.0157 12.43 3.26119 14.7356C3.27164 14.8362 3.19254 14.9217 3.0933 14.9075C2.61277 14.8384 1.37637 14.5712 0.992837 13.7389C0.780179 13.2984 0.780179 12.788 0.992837 12.3475C1.24355 11.8109 1.84795 11.4416 2.76797 11.26C3.20299 11.1542 4.37746 11.0041 5.47134 11.0243C5.48776 11.0266 5.49597 11.0386 5.49746 11.0454Z" fill="#3BB77E"/>
</svg>
