<svg width="116" height="44" viewBox="0 0 116 44" fill="none" xmlns="http://www.w3.org/2000/svg">
<rect y="3" width="38" height="38" rx="19" fill="#3BB77E"/>
<path d="M15.432 12.536C15.7493 12.3493 16.2253 12.172 16.86 12.004C17.5133 11.836 18.1667 11.752 18.82 11.752C19.7533 11.752 20.5747 11.892 21.284 12.172C22.012 12.4333 22.4787 12.8533 22.684 13.432C23.02 14.4027 23.384 15.532 23.776 16.82C24.168 18.108 24.56 19.4427 24.952 20.824C25.344 22.1867 25.7267 23.54 26.1 24.884C26.4733 26.2093 26.8 27.3853 27.08 28.412C26.856 28.6733 26.52 28.8787 26.072 29.028C25.624 29.196 25.092 29.28 24.476 29.28C24.028 29.28 23.6453 29.2427 23.328 29.168C23.0293 29.0933 22.7773 28.9813 22.572 28.832C22.3853 28.6827 22.2267 28.4867 22.096 28.244C21.984 28.0013 21.8813 27.7213 21.788 27.404L21.284 25.472H16.216C16.0667 26.032 15.9173 26.6107 15.768 27.208C15.6187 27.8053 15.4693 28.384 15.32 28.944C15.0587 29.0373 14.7787 29.112 14.48 29.168C14.2 29.2427 13.8547 29.28 13.444 29.28C12.492 29.28 11.7827 29.1213 11.316 28.804C10.868 28.468 10.644 28.0107 10.644 27.432C10.644 27.1707 10.6813 26.9093 10.756 26.648C10.8307 26.3867 10.9147 26.0787 11.008 25.724C11.1387 25.22 11.316 24.5947 11.54 23.848C11.7827 23.1013 12.044 22.2987 12.324 21.44C12.604 20.5627 12.9027 19.6667 13.22 18.752C13.5373 17.8373 13.836 16.9787 14.116 16.176C14.396 15.3547 14.648 14.6267 14.872 13.992C15.1147 13.3573 15.3013 12.872 15.432 12.536ZM18.792 16.148C18.5307 16.932 18.232 17.8093 17.896 18.78C17.5787 19.732 17.2893 20.7027 17.028 21.692H20.5C20.2387 20.684 19.968 19.704 19.688 18.752C19.4267 17.7813 19.184 16.9133 18.96 16.148H18.792Z" fill="white"/>
<path d="M47.656 16.888C47.928 16.728 48.336 16.576 48.88 16.432C49.44 16.288 50 16.216 50.56 16.216C51.36 16.216 52.064 16.336 52.672 16.576C53.296 16.8 53.696 17.16 53.872 17.656C54.16 18.488 54.472 19.456 54.808 20.56C55.144 21.664 55.48 22.808 55.816 23.992C56.152 25.16 56.48 26.32 56.8 27.472C57.12 28.608 57.4 29.616 57.64 30.496C57.448 30.72 57.16 30.896 56.776 31.024C56.392 31.168 55.936 31.24 55.408 31.24C55.024 31.24 54.696 31.208 54.424 31.144C54.168 31.08 53.952 30.984 53.776 30.856C53.616 30.728 53.48 30.56 53.368 30.352C53.272 30.144 53.184 29.904 53.104 29.632L52.672 27.976H48.328C48.2 28.456 48.072 28.952 47.944 29.464C47.816 29.976 47.688 30.472 47.56 30.952C47.336 31.032 47.096 31.096 46.84 31.144C46.6 31.208 46.304 31.24 45.952 31.24C45.136 31.24 44.528 31.104 44.128 30.832C43.744 30.544 43.552 30.152 43.552 29.656C43.552 29.432 43.584 29.208 43.648 28.984C43.712 28.76 43.784 28.496 43.864 28.192C43.976 27.76 44.128 27.224 44.32 26.584C44.528 25.944 44.752 25.256 44.992 24.52C45.232 23.768 45.488 23 45.76 22.216C46.032 21.432 46.288 20.696 46.528 20.008C46.768 19.304 46.984 18.68 47.176 18.136C47.384 17.592 47.544 17.176 47.656 16.888ZM50.536 19.984C50.312 20.656 50.056 21.408 49.768 22.24C49.496 23.056 49.248 23.888 49.024 24.736H52C51.776 23.872 51.544 23.032 51.304 22.216C51.08 21.384 50.872 20.64 50.68 19.984H50.536ZM72.5429 30.496C72.3189 30.72 71.9909 30.888 71.5589 31C71.1429 31.128 70.6389 31.192 70.0469 31.192C69.4549 31.192 68.8949 31.104 68.3669 30.928C67.8389 30.752 67.4069 30.328 67.0709 29.656L64.6949 24.808C64.4549 24.312 64.2389 23.848 64.0469 23.416C63.8549 22.968 63.6469 22.456 63.4229 21.88L63.2789 21.904C63.3429 22.768 63.3749 23.648 63.3749 24.544C63.3909 25.44 63.3989 26.32 63.3989 27.184V30.904C63.2229 30.952 62.9509 31 62.5829 31.048C62.2309 31.096 61.8789 31.12 61.5269 31.12C61.1749 31.12 60.8629 31.096 60.5909 31.048C60.3189 31 60.0949 30.904 59.9189 30.76C59.7429 30.616 59.6069 30.424 59.5109 30.184C59.4149 29.928 59.3669 29.6 59.3669 29.2V17.2C59.5909 16.88 59.9349 16.64 60.3989 16.48C60.8629 16.32 61.3589 16.24 61.8869 16.24C62.4789 16.24 63.0389 16.336 63.5669 16.528C64.1109 16.704 64.5429 17.12 64.8629 17.776L67.2629 22.624C67.5029 23.12 67.7189 23.592 67.9109 24.04C68.1029 24.472 68.3109 24.976 68.5349 25.552L68.6549 25.528C68.5909 24.664 68.5509 23.8 68.5349 22.936C68.5189 22.072 68.5109 21.208 68.5109 20.344V16.456C68.6869 16.408 68.9509 16.36 69.3029 16.312C69.6709 16.264 70.0309 16.24 70.3829 16.24C71.0869 16.24 71.6229 16.368 71.9909 16.624C72.3589 16.864 72.5429 17.376 72.5429 18.16V30.496ZM74.7439 19.816C74.6319 19.64 74.5279 19.4 74.4319 19.096C74.3359 18.792 74.2879 18.472 74.2879 18.136C74.2879 17.512 74.4239 17.064 74.6959 16.792C74.9839 16.52 75.3519 16.384 75.7999 16.384H86.2639C86.3759 16.56 86.4799 16.8 86.5759 17.104C86.6719 17.408 86.7199 17.728 86.7199 18.064C86.7199 18.688 86.5759 19.136 86.2879 19.408C86.0159 19.68 85.6559 19.816 85.2079 19.816H82.5439V30.904C82.3679 30.952 82.0879 31 81.7039 31.048C81.3359 31.096 80.9679 31.12 80.5999 31.12C80.2319 31.12 79.9039 31.088 79.6159 31.024C79.3439 30.976 79.1119 30.88 78.9199 30.736C78.7279 30.592 78.5839 30.392 78.4879 30.136C78.3919 29.88 78.3439 29.544 78.3439 29.128V19.816H74.7439ZM101.52 30.904C101.344 30.952 101.064 31 100.68 31.048C100.312 31.096 99.9439 31.12 99.5759 31.12C99.2079 31.12 98.8799 31.088 98.5919 31.024C98.3199 30.976 98.0879 30.88 97.8959 30.736C97.7039 30.592 97.5599 30.392 97.4639 30.136C97.3679 29.88 97.3199 29.544 97.3199 29.128V25.384H92.7119V30.904C92.5359 30.952 92.2559 31 91.8719 31.048C91.5039 31.096 91.1359 31.12 90.7679 31.12C90.3999 31.12 90.0719 31.088 89.7839 31.024C89.5119 30.976 89.2799 30.88 89.0879 30.736C88.8959 30.592 88.7519 30.392 88.6559 30.136C88.5599 29.88 88.5119 29.544 88.5119 29.128V16.456C88.6879 16.424 88.9679 16.384 89.3519 16.336C89.7359 16.272 90.1039 16.24 90.4559 16.24C90.8239 16.24 91.1439 16.272 91.4159 16.336C91.7039 16.384 91.9439 16.48 92.1359 16.624C92.3279 16.768 92.4719 16.968 92.5679 17.224C92.6639 17.48 92.7119 17.816 92.7119 18.232V22.072H97.3199V16.456C97.4959 16.424 97.7759 16.384 98.1599 16.336C98.5439 16.272 98.9119 16.24 99.2639 16.24C99.6319 16.24 99.9519 16.272 100.224 16.336C100.512 16.384 100.752 16.48 100.944 16.624C101.136 16.768 101.28 16.968 101.376 17.224C101.472 17.48 101.52 17.816 101.52 18.232V30.904ZM104.397 18.688C104.397 18 104.597 17.456 104.997 17.056C105.397 16.656 105.941 16.456 106.629 16.456H114.549C114.661 16.632 114.757 16.864 114.837 17.152C114.933 17.44 114.981 17.744 114.981 18.064C114.981 18.672 114.845 19.104 114.573 19.36C114.317 19.616 113.973 19.744 113.541 19.744H108.477V21.976H113.877C113.989 22.152 114.085 22.384 114.165 22.672C114.261 22.944 114.309 23.24 114.309 23.56C114.309 24.168 114.181 24.6 113.925 24.856C113.669 25.112 113.325 25.24 112.893 25.24H108.477V27.76H114.645C114.757 27.936 114.853 28.168 114.933 28.456C115.029 28.744 115.077 29.048 115.077 29.368C115.077 29.976 114.941 30.416 114.669 30.688C114.413 30.944 114.069 31.072 113.637 31.072H106.629C105.941 31.072 105.397 30.872 104.997 30.472C104.597 30.072 104.397 29.528 104.397 28.84V18.688Z" fill="#0F1130"/>
</svg>
