<svg width="39" height="38" viewBox="0 0 39 38" fill="none" xmlns="http://www.w3.org/2000/svg">
<rect x="0.804199" width="38.1959" height="38" rx="16" fill="#3BB77E"/>
<path d="M9.26746 14.1201H29.8932C30.1971 14.1201 30.4886 14 30.7035 13.7862C30.9184 13.5724 31.0391 13.2824 31.0391 12.9801C31.0391 12.6777 30.9184 12.3878 30.7035 12.174C30.4886 11.9602 30.1971 11.8401 29.8932 11.8401H9.26746C8.96355 11.8401 8.67209 11.9602 8.4572 12.174C8.24231 12.3878 8.12158 12.6777 8.12158 12.9801C8.12158 13.2824 8.24231 13.5724 8.4572 13.7862C8.67209 14 8.96355 14.1201 9.26746 14.1201V14.1201ZM29.8932 23.2401H9.26746C8.96355 23.2401 8.67209 23.3602 8.4572 23.574C8.24231 23.7878 8.12158 24.0777 8.12158 24.3801C8.12158 24.6824 8.24231 24.9724 8.4572 25.1862C8.67209 25.4 8.96355 25.5201 9.26746 25.5201H29.8932C30.1971 25.5201 30.4886 25.4 30.7035 25.1862C30.9184 24.9724 31.0391 24.6824 31.0391 24.3801C31.0391 24.0777 30.9184 23.7878 30.7035 23.574C30.4886 23.3602 30.1971 23.2401 29.8932 23.2401ZM29.8932 17.5401H9.26746C8.96355 17.5401 8.67209 17.6602 8.4572 17.874C8.24231 18.0878 8.12158 18.3777 8.12158 18.6801C8.12158 18.9824 8.24231 19.2724 8.4572 19.4862C8.67209 19.7 8.96355 19.8201 9.26746 19.8201H29.8932C30.1971 19.8201 30.4886 19.7 30.7035 19.4862C30.9184 19.2724 31.0391 18.9824 31.0391 18.6801C31.0391 18.3777 30.9184 18.0878 30.7035 17.874C30.4886 17.6602 30.1971 17.5401 29.8932 17.5401Z" fill="#D2FFEA"/>
</svg>
