<svg width="31" height="30" viewBox="0 0 31 30" fill="none" xmlns="http://www.w3.org/2000/svg">
<path d="M29.46 16.5C29.2435 16.321 28.981 16.2064 28.7026 16.1693C28.4241 16.1322 28.1408 16.174 27.885 16.29C26.2989 17.0158 24.5743 17.3894 22.83 17.385C19.6033 17.3811 16.5089 16.1016 14.2217 13.8256C11.9344 11.5496 10.6398 8.46164 10.62 5.23498C10.6268 4.22373 10.7527 3.2168 10.995 2.23498C11.0464 1.97329 11.0271 1.70262 10.9391 1.45086C10.8511 1.19911 10.6976 0.97536 10.4944 0.80268C10.2911 0.63 10.0455 0.51463 9.78284 0.468455C9.52017 0.42228 9.24994 0.44697 8.99999 0.539983C6.64848 1.59735 4.60435 3.23512 3.05963 5.29946C1.51491 7.36379 0.520309 9.78692 0.169263 12.3412C-0.181783 14.8955 0.122248 17.4971 1.05279 19.9016C1.98334 22.3061 3.50986 24.4347 5.48894 26.0872C7.46802 27.7397 9.8347 28.862 12.3667 29.3487C14.8986 29.8354 17.5127 29.6704 19.9634 28.8693C22.4141 28.0682 24.6209 26.6573 26.3766 24.7691C28.1322 22.8809 29.3791 20.5774 30 18.075C30.0756 17.7885 30.0647 17.486 29.9686 17.2057C29.8725 16.9254 29.6955 16.6798 29.46 16.5V16.5ZM15.21 26.535C12.6926 26.5172 10.2423 25.7218 8.19448 24.2576C6.14666 22.7934 4.60149 20.732 3.77051 18.3557C2.93954 15.9794 2.86339 13.4043 3.5525 10.983C4.2416 8.56172 5.66227 6.41263 7.61999 4.82998V5.23498C7.62396 9.26771 9.22771 13.1341 12.0793 15.9857C14.9308 18.8373 18.7973 20.441 22.83 20.445C23.8888 20.4489 24.945 20.3382 25.98 20.115C24.9449 22.0733 23.3947 23.7117 21.4967 24.8537C19.5988 25.9957 17.425 26.5977 15.21 26.595V26.535Z" fill="#3BB77E"/>
</svg>
