<svg width="100" height="100" viewBox="0 0 100 100" fill="none" xmlns="http://www.w3.org/2000/svg">
<rect width="100" height="100" rx="16" fill="#D2F1E1"/>
<path opacity="0.8" d="M69.65 28.7C68.114 28.4354 66.5586 28.2992 65 28.2929C59.6822 28.2885 54.4753 29.8134 50 32.6857C45.5131 29.8511 40.3071 28.3636 35 28.4C33.4414 28.4064 31.886 28.5426 30.35 28.8071C29.8468 28.8939 29.3912 29.1574 29.0651 29.5503C28.7391 29.9431 28.564 30.4395 28.5714 30.95V56.6643C28.5668 56.9791 28.6317 57.2911 28.7614 57.5781C28.8911 57.865 29.0824 58.1199 29.3218 58.3245C29.5611 58.529 29.8427 58.6784 30.1463 58.7618C30.4499 58.8452 30.7682 58.8607 31.0785 58.8071C34.1493 58.2755 37.2954 58.3637 40.3315 59.0666C43.3677 59.7695 46.2325 61.0729 48.7571 62.9L49.0143 63.05H49.25C49.4876 63.149 49.7425 63.2 50 63.2C50.2574 63.2 50.5123 63.149 50.75 63.05H50.9857L51.2428 62.9C53.7499 61.0321 56.6064 59.6864 59.6431 58.9429C62.6799 58.1994 65.835 58.073 68.9214 58.5714C69.2317 58.625 69.55 58.6095 69.8536 58.5261C70.1573 58.4427 70.4388 58.2933 70.6782 58.0887C70.9175 57.8841 71.1089 57.6293 71.2386 57.3424C71.3683 57.0554 71.4331 56.7434 71.4285 56.4286V30.7143C71.4062 30.226 71.2177 29.7601 70.8942 29.3937C70.5707 29.0274 70.1317 28.7826 69.65 28.7ZM47.8571 57.1786C43.8926 55.0929 39.4797 54.0044 35 54.0071C34.2928 54.0071 33.5857 54.0071 32.8571 54.0071V32.5786C33.5708 32.5374 34.2863 32.5374 35 32.5786C39.5715 32.5735 44.0433 33.9151 47.8571 36.4357V57.1786ZM67.1428 54.0929C66.4143 54.0929 65.7071 54.0929 65 54.0929C60.5203 54.0901 56.1074 55.1786 52.1428 57.2643V36.4357C55.9567 33.9151 60.4284 32.5735 65 32.5786C65.7137 32.5374 66.4291 32.5374 67.1428 32.5786V54.0929ZM69.65 62.9857C68.114 62.7211 66.5586 62.585 65 62.5786C59.6822 62.5742 54.4753 64.0991 50 66.9714C45.5246 64.0991 40.3178 62.5742 35 62.5786C33.4414 62.585 31.886 62.7211 30.35 62.9857C30.071 63.03 29.8036 63.1289 29.563 63.2769C29.3225 63.4249 29.1135 63.619 28.9483 63.848C28.783 64.077 28.6646 64.3365 28.5999 64.6114C28.5352 64.8863 28.5255 65.1713 28.5714 65.45C28.6803 66.0065 29.0053 66.4971 29.4752 66.8144C29.9452 67.1317 30.5217 67.2498 31.0785 67.1429C34.1493 66.6112 37.2954 66.6994 40.3315 67.4023C43.3677 68.1052 46.2325 69.4086 48.7571 71.2357C49.12 71.4941 49.5545 71.633 50 71.633C50.4455 71.633 50.8799 71.4941 51.2428 71.2357C53.7675 69.4086 56.6323 68.1052 59.6684 67.4023C62.7045 66.6994 65.8506 66.6112 68.9214 67.1429C69.4782 67.2498 70.0548 67.1317 70.5247 66.8144C70.9946 66.4971 71.3196 66.0065 71.4285 65.45C71.4744 65.1713 71.4647 64.8863 71.4 64.6114C71.3354 64.3365 71.217 64.077 71.0517 63.848C70.8864 63.619 70.6775 63.4249 70.4369 63.2769C70.1964 63.1289 69.9289 63.03 69.65 62.9857Z" fill="#101130"/>
</svg>
