<svg width="100" height="100" viewBox="0 0 100 100" fill="none" xmlns="http://www.w3.org/2000/svg">
<rect width="100" height="100" rx="16" fill="#D2F1E1"/>
<path opacity="0.8" d="M58.5713 54.2858H41.4284C40.8601 54.2858 40.315 54.5116 39.9132 54.9134C39.5113 55.3153 39.2855 55.8604 39.2855 56.4287C39.2855 56.997 39.5113 57.542 39.9132 57.9439C40.315 58.3458 40.8601 58.5715 41.4284 58.5715H58.5713C59.1396 58.5715 59.6846 58.3458 60.0865 57.9439C60.4883 57.542 60.7141 56.997 60.7141 56.4287C60.7141 55.8604 60.4883 55.3153 60.0865 54.9134C59.6846 54.5116 59.1396 54.2858 58.5713 54.2858ZM58.5713 45.7144H45.7141C45.1458 45.7144 44.6007 45.9402 44.1989 46.342C43.797 46.7439 43.5713 47.2889 43.5713 47.8572C43.5713 48.4256 43.797 48.9706 44.1989 49.3725C44.6007 49.7743 45.1458 50.0001 45.7141 50.0001H58.5713C59.1396 50.0001 59.6846 49.7743 60.0865 49.3725C60.4883 48.9706 60.7141 48.4256 60.7141 47.8572C60.7141 47.2889 60.4883 46.7439 60.0865 46.342C59.6846 45.9402 59.1396 45.7144 58.5713 45.7144ZM67.1427 32.8572H60.7141V30.7144C60.7141 30.1461 60.4883 29.601 60.0865 29.1992C59.6846 28.7973 59.1396 28.5715 58.5713 28.5715C58.0029 28.5715 57.4579 28.7973 57.056 29.1992C56.6542 29.601 56.4284 30.1461 56.4284 30.7144V32.8572H52.1427V30.7144C52.1427 30.1461 51.9169 29.601 51.5151 29.1992C51.1132 28.7973 50.5681 28.5715 49.9998 28.5715C49.4315 28.5715 48.8865 28.7973 48.4846 29.1992C48.0827 29.601 47.857 30.1461 47.857 30.7144V32.8572H43.5713V30.7144C43.5713 30.1461 43.3455 29.601 42.9436 29.1992C42.5418 28.7973 41.9967 28.5715 41.4284 28.5715C40.8601 28.5715 40.315 28.7973 39.9132 29.1992C39.5113 29.601 39.2855 30.1461 39.2855 30.7144V32.8572H32.857C32.2886 32.8572 31.7436 33.083 31.3417 33.4849C30.9399 33.8867 30.7141 34.4318 30.7141 35.0001V65.0001C30.7141 66.7051 31.3914 68.3402 32.597 69.5458C33.8026 70.7514 35.4377 71.4287 37.1427 71.4287H62.857C64.5619 71.4287 66.1971 70.7514 67.4027 69.5458C68.6082 68.3402 69.2855 66.7051 69.2855 65.0001V35.0001C69.2855 34.4318 69.0598 33.8867 68.6579 33.4849C68.2561 33.083 67.711 32.8572 67.1427 32.8572ZM64.9998 65.0001C64.9998 65.5684 64.7741 66.1135 64.3722 66.5153C63.9703 66.9172 63.4253 67.143 62.857 67.143H37.1427C36.5744 67.143 36.0293 66.9172 35.6275 66.5153C35.2256 66.1135 34.9998 65.5684 34.9998 65.0001V37.143H39.2855V39.2858C39.2855 39.8541 39.5113 40.3992 39.9132 40.801C40.315 41.2029 40.8601 41.4287 41.4284 41.4287C41.9967 41.4287 42.5418 41.2029 42.9436 40.801C43.3455 40.3992 43.5713 39.8541 43.5713 39.2858V37.143H47.857V39.2858C47.857 39.8541 48.0827 40.3992 48.4846 40.801C48.8865 41.2029 49.4315 41.4287 49.9998 41.4287C50.5681 41.4287 51.1132 41.2029 51.5151 40.801C51.9169 40.3992 52.1427 39.8541 52.1427 39.2858V37.143H56.4284V39.2858C56.4284 39.8541 56.6542 40.3992 57.056 40.801C57.4579 41.2029 58.0029 41.4287 58.5713 41.4287C59.1396 41.4287 59.6846 41.2029 60.0865 40.801C60.4883 40.3992 60.7141 39.8541 60.7141 39.2858V37.143H64.9998V65.0001Z" fill="#101130"/>
</svg>
