<svg width="100" height="100" viewBox="0 0 100 100" fill="none" xmlns="http://www.w3.org/2000/svg">
<rect width="100" height="100" rx="16" fill="#D2F1E1"/>
<path opacity="0.8" d="M69.2856 54.2858H67.1427V32.8572H69.2856C69.8539 32.8572 70.3989 32.6315 70.8008 32.2296C71.2027 31.8278 71.4284 31.2827 71.4284 30.7144C71.4284 30.1461 71.2027 29.601 70.8008 29.1992C70.3989 28.7973 69.8539 28.5715 69.2856 28.5715H30.7141C30.1458 28.5715 29.6008 28.7973 29.1989 29.1992C28.7971 29.601 28.5713 30.1461 28.5713 30.7144C28.5713 31.2827 28.7971 31.8278 29.1989 32.2296C29.6008 32.6315 30.1458 32.8572 30.7141 32.8572H32.857V54.2858H30.7141C30.1458 54.2858 29.6008 54.5116 29.1989 54.9134C28.7971 55.3153 28.5713 55.8604 28.5713 56.4287C28.5713 56.997 28.7971 57.542 29.1989 57.9439C29.6008 58.3458 30.1458 58.5715 30.7141 58.5715H47.857V61.0358L38.107 67.4644C37.707 67.712 37.3996 68.0843 37.2322 68.524C37.0648 68.9636 37.0468 69.4461 37.1808 69.8971C37.3149 70.348 37.5936 70.7423 37.974 71.0191C38.3544 71.2959 38.8153 71.4398 39.2856 71.4287C39.7069 71.4335 40.1191 71.3061 40.4641 71.0644L47.857 66.1787V69.2858C47.857 69.8541 48.0828 70.3992 48.4846 70.801C48.8865 71.2029 49.4315 71.4287 49.9999 71.4287C50.5682 71.4287 51.1132 71.2029 51.5151 70.801C51.917 70.3992 52.1427 69.8541 52.1427 69.2858V66.1787L59.5356 71.0644C59.8807 71.3061 60.2929 71.4335 60.7141 71.4287C61.172 71.4251 61.6166 71.2751 61.9829 71.0005C62.3493 70.7258 62.618 70.3411 62.7498 69.9027C62.8816 69.4642 62.8694 68.9951 62.7152 68.564C62.561 68.1329 62.2727 67.7626 61.8927 67.5072L52.1427 61.0787V58.5715H69.2856C69.8539 58.5715 70.3989 58.3458 70.8008 57.9439C71.2027 57.542 71.4284 56.997 71.4284 56.4287C71.4284 55.8604 71.2027 55.3153 70.8008 54.9134C70.3989 54.5116 69.8539 54.2858 69.2856 54.2858ZM62.857 54.2858H37.1427V32.8572H62.857V54.2858ZM44.8784 50.5572C45.4496 50.8947 46.1008 51.0727 46.7641 51.0727C47.4275 51.0727 48.0787 50.8947 48.6499 50.5572L55.0784 46.8287C55.628 46.4914 56.0819 46.0188 56.3968 45.456C56.7117 44.8933 56.877 44.2592 56.877 43.6144C56.877 42.9696 56.7117 42.3355 56.3968 41.7727C56.0819 41.21 55.628 40.7374 55.0784 40.4001L48.6499 36.6715C48.0787 36.3341 47.4275 36.1561 46.7641 36.1561C46.1008 36.1561 45.4496 36.3341 44.8784 36.6715C44.3029 36.996 43.8258 37.4699 43.4977 38.0433C43.1695 38.6167 43.0024 39.2681 43.0141 39.9287V47.3858C43.0177 48.0319 43.1921 48.6655 43.5195 49.2224C43.8469 49.7794 44.3157 50.2399 44.8784 50.5572ZM47.2999 40.743L52.1427 43.5715L47.257 46.4001L47.2999 40.743Z" fill="#101130"/>
</svg>
