<svg width="100" height="100" viewBox="0 0 100 100" fill="none" xmlns="http://www.w3.org/2000/svg">
<rect width="100" height="100" rx="16" fill="#D2F1E1"/>
<path opacity="0.8" d="M69.2856 62.8573H64.9999V56.4287C64.9999 55.8604 64.7741 55.3153 64.3722 54.9135C63.9704 54.5116 63.4253 54.2858 62.857 54.2858H52.1427V48.4787L54.5641 49.743C54.9173 49.9277 55.3149 50.0103 55.7124 49.9815C56.1099 49.9527 56.4914 49.8136 56.8142 49.5798C57.137 49.3461 57.3882 49.027 57.5396 48.6583C57.691 48.2897 57.7366 47.8861 57.6713 47.493L56.8141 42.4144L60.4999 38.793C60.779 38.5204 60.9784 38.1767 61.0766 37.7991C61.1748 37.4215 61.168 37.0242 61.057 36.6501C60.9328 36.2693 60.7043 35.9309 60.3975 35.6733C60.0907 35.4158 59.7179 35.2494 59.3213 35.193L54.2856 34.4001L51.9284 29.7716C51.753 29.4093 51.479 29.1037 51.1379 28.8899C50.7968 28.6761 50.4024 28.5627 49.9999 28.5627C49.5973 28.5627 49.2029 28.6761 48.8618 28.8899C48.5207 29.1037 48.2468 29.4093 48.0713 29.7716L45.7141 34.4001L40.5927 35.1501C40.1961 35.2065 39.8233 35.3729 39.5165 35.6305C39.2097 35.888 38.9812 36.2264 38.857 36.6073C38.746 36.9813 38.7392 37.3786 38.8374 37.7562C38.9356 38.1339 39.135 38.4775 39.4141 38.7501L43.1856 42.4144L42.3284 47.493C42.2631 47.8861 42.3087 48.2897 42.4601 48.6583C42.6115 49.027 42.8627 49.3461 43.1855 49.5798C43.5083 49.8136 43.8898 49.9527 44.2873 49.9815C44.6848 50.0103 45.0824 49.9277 45.4356 49.743L47.857 48.4787V54.2858H37.1427C36.5744 54.2858 36.0294 54.5116 35.6275 54.9135C35.2256 55.3153 34.9999 55.8604 34.9999 56.4287V62.8573H30.7141C30.1458 62.8573 29.6008 63.083 29.1989 63.4849C28.7971 63.8868 28.5713 64.4318 28.5713 65.0001V69.2858C28.5713 69.8542 28.7971 70.3992 29.1989 70.8011C29.6008 71.2029 30.1458 71.4287 30.7141 71.4287C31.2825 71.4287 31.8275 71.2029 32.2294 70.8011C32.6312 70.3992 32.857 69.8542 32.857 69.2858V67.143H41.4284V69.2858C41.4284 69.8542 41.6542 70.3992 42.0561 70.8011C42.4579 71.2029 43.003 71.4287 43.5713 71.4287C44.1396 71.4287 44.6847 71.2029 45.0865 70.8011C45.4884 70.3992 45.7141 69.8542 45.7141 69.2858V65.0001C45.7141 64.4318 45.4884 63.8868 45.0865 63.4849C44.6847 63.083 44.1396 62.8573 43.5713 62.8573H39.2856V58.5716H60.7141V62.8573H56.4284C55.8601 62.8573 55.3151 63.083 54.9132 63.4849C54.5113 63.8868 54.2856 64.4318 54.2856 65.0001V69.2858C54.2856 69.8542 54.5113 70.3992 54.9132 70.8011C55.3151 71.2029 55.8601 71.4287 56.4284 71.4287C56.9968 71.4287 57.5418 71.2029 57.9437 70.8011C58.3455 70.3992 58.5713 69.8542 58.5713 69.2858V67.143H67.1427V69.2858C67.1427 69.8542 67.3685 70.3992 67.7703 70.8011C68.1722 71.2029 68.7173 71.4287 69.2856 71.4287C69.8539 71.4287 70.3989 71.2029 70.8008 70.8011C71.2027 70.3992 71.4284 69.8542 71.4284 69.2858V65.0001C71.4284 64.4318 71.2027 63.8868 70.8008 63.4849C70.3989 63.083 69.8539 62.8573 69.2856 62.8573ZM49.9999 42.7787C49.6481 42.7805 49.3022 42.8688 48.9927 43.0358L47.2784 43.9358L47.5999 42.0073C47.6561 41.6661 47.6289 41.3165 47.5207 40.9881C47.4125 40.6597 47.2265 40.3624 46.9784 40.1216L45.5856 38.7501L47.5141 38.4716C47.8592 38.4255 48.1878 38.296 48.4715 38.0944C48.7553 37.8928 48.9857 37.6251 49.1427 37.3144L49.9999 35.5573L50.857 37.3144C51.0141 37.6251 51.2444 37.8928 51.5282 38.0944C51.8119 38.296 52.1405 38.4255 52.4856 38.4716L54.4141 38.7501L53.0213 40.1216C52.7733 40.3624 52.5872 40.6597 52.479 40.9881C52.3708 41.3165 52.3436 41.6661 52.3999 42.0073L52.7213 43.9358L51.007 43.0358C50.6975 42.8688 50.3516 42.7805 49.9999 42.7787Z" fill="#101130"/>
</svg>
