<svg width="20" height="20" viewBox="0 0 20 20" fill="none" xmlns="http://www.w3.org/2000/svg">
<path fill-rule="evenodd" clip-rule="evenodd" d="M9.99999 18.3334C5.39999 18.3334 1.66666 14.6084 1.66666 10.0001C1.66666 5.40008 5.39999 1.66675 9.99999 1.66675C14.6083 1.66675 18.3333 5.40008 18.3333 10.0001C18.3333 14.6084 14.6083 18.3334 9.99999 18.3334ZM12.6583 13.0917C12.7583 13.1501 12.8667 13.1834 12.9833 13.1834C13.1917 13.1834 13.4 13.0751 13.5167 12.8751C13.6917 12.5834 13.6 12.2001 13.3 12.0167L10.3333 10.2501V6.40005C10.3333 6.05005 10.05 5.77505 9.70832 5.77505C9.36666 5.77505 9.08332 6.05005 9.08332 6.40005V10.6084C9.08332 10.8251 9.19999 11.0251 9.39166 11.1417L12.6583 13.0917Z" fill="#3BB77E"/>
</svg>
